<svg width="429" height="126" viewBox="0 0 429 126" fill="none" xmlns="http://www.w3.org/2000/svg">
<path d="M130.371 100.846H128.161V46.0385C128.147 43.1357 126.978 40.356 124.909 38.3034C122.84 36.2508 120.039 35.0913 117.113 35.0769H83.9677V10.9615C83.9532 8.0588 82.7845 5.27905 80.7157 3.22648C78.6469 1.1739 75.8451 0.0144059 72.9194 0H19.8871C16.9614 0.0144059 14.1596 1.1739 12.0908 3.22648C10.0219 5.27905 8.85323 8.0588 8.83871 10.9615V100.846H6.62903C4.8709 100.846 3.18478 101.539 1.9416 102.772C0.698414 104.006 0 105.679 0 107.423C0 109.167 0.698414 110.84 1.9416 112.074C3.18478 113.307 4.8709 114 6.62903 114H130.371C132.129 114 133.815 113.307 135.058 112.074C136.302 110.84 137 109.167 137 107.423C137 105.679 136.302 104.006 135.058 102.772C133.815 101.539 132.129 100.846 130.371 100.846ZM114.903 48.2308V100.846H83.9677V48.2308H114.903ZM22.0968 13.1538H70.7097V100.846H22.0968V13.1538ZM28.7258 28.5C28.7258 26.7557 29.4242 25.0828 30.6674 23.8494C31.9106 22.616 33.5967 21.9231 35.3548 21.9231H50.8226C52.5807 21.9231 54.2668 22.616 55.51 23.8494C56.7532 25.0828 57.4516 26.7557 57.4516 28.5C57.4516 30.2443 56.7532 31.9172 55.51 33.1506C54.2668 34.384 52.5807 35.0769 50.8226 35.0769H35.3548C33.5967 35.0769 31.9106 34.384 30.6674 33.1506C29.4242 31.9172 28.7258 30.2443 28.7258 28.5ZM64.0806 63.5769C64.0806 65.3212 63.3822 66.9941 62.139 68.2275C60.8959 69.4609 59.2097 70.1538 57.4516 70.1538H41.9839C40.2257 70.1538 38.5396 69.4609 37.2964 68.2275C36.0533 66.9941 35.3548 65.3212 35.3548 63.5769C35.3548 61.8326 36.0533 60.1597 37.2964 58.9263C38.5396 57.6929 40.2257 57 41.9839 57H57.4516C59.2097 57 60.8959 57.6929 62.139 58.9263C63.3822 60.1597 64.0806 61.8326 64.0806 63.5769ZM57.4516 85.5C57.4516 87.2443 56.7532 88.9172 55.51 90.1506C54.2668 91.384 52.5807 92.0769 50.8226 92.0769H35.3548C33.5967 92.0769 31.9106 91.384 30.6674 90.1506C29.4242 88.9172 28.7258 87.2443 28.7258 85.5C28.7258 83.7557 29.4242 82.0828 30.6674 80.8494C31.9106 79.616 33.5967 78.9231 35.3548 78.9231H50.8226C52.5807 78.9231 54.2668 79.616 55.51 80.8494C56.7532 82.0828 57.4516 83.7557 57.4516 85.5ZM108.274 85.5C108.274 87.2443 107.576 88.9172 106.333 90.1506C105.089 91.384 103.403 92.0769 101.645 92.0769H97.2258C95.4677 92.0769 93.7816 91.384 92.5384 90.1506C91.2952 88.9172 90.5968 87.2443 90.5968 85.5C90.5968 83.7557 91.2952 82.0828 92.5384 80.8494C93.7816 79.616 95.4677 78.9231 97.2258 78.9231H101.645C103.403 78.9231 105.089 79.616 106.333 80.8494C107.576 82.0828 108.274 83.7557 108.274 85.5ZM90.5968 63.5769C90.5968 61.8326 91.2952 60.1597 92.5384 58.9263C93.7816 57.6929 95.4677 57 97.2258 57H101.645C103.403 57 105.089 57.6929 106.333 58.9263C107.576 60.1597 108.274 61.8326 108.274 63.5769C108.274 65.3212 107.576 66.9941 106.333 68.2275C105.089 69.4609 103.403 70.1538 101.645 70.1538H97.2258C95.4677 70.1538 93.7816 69.4609 92.5384 68.2275C91.2952 66.9941 90.5968 65.3212 90.5968 63.5769Z" fill="#EB455F"/>
<path d="M157.945 79.875V114H150.328V79.875H157.945ZM171.07 93.9609V114H163.758V88.6406H170.625L171.07 93.9609ZM170.133 100.43L168.281 100.477C168.281 98.6953 168.492 97.0625 168.914 95.5781C169.352 94.0781 169.984 92.7734 170.812 91.6641C171.641 90.5547 172.664 89.6953 173.883 89.0859C175.117 88.4766 176.539 88.1719 178.148 88.1719C179.273 88.1719 180.297 88.3438 181.219 88.6875C182.141 89.0156 182.93 89.5391 183.586 90.2578C184.258 90.9609 184.773 91.8828 185.133 93.0234C185.492 94.1484 185.672 95.5 185.672 97.0781V114H178.359V97.9688C178.359 96.8438 178.219 95.9922 177.938 95.4141C177.672 94.8203 177.281 94.4141 176.766 94.1953C176.25 93.9766 175.633 93.8672 174.914 93.8672C174.133 93.8672 173.438 94.0391 172.828 94.3828C172.234 94.7109 171.734 95.1719 171.328 95.7656C170.922 96.3594 170.617 97.0547 170.414 97.8516C170.227 98.6484 170.133 99.5078 170.133 100.43ZM184.922 100.055L182.602 100.242C182.602 98.5234 182.805 96.9297 183.211 95.4609C183.617 93.9922 184.227 92.7188 185.039 91.6406C185.852 90.5469 186.859 89.6953 188.062 89.0859C189.281 88.4766 190.695 88.1719 192.305 88.1719C193.492 88.1719 194.57 88.3438 195.539 88.6875C196.523 89.0312 197.367 89.5859 198.07 90.3516C198.789 91.1172 199.344 92.125 199.734 93.375C200.125 94.6094 200.32 96.125 200.32 97.9219V114H192.961V97.9219C192.961 96.8125 192.82 95.9688 192.539 95.3906C192.273 94.8125 191.883 94.4141 191.367 94.1953C190.867 93.9766 190.266 93.8672 189.562 93.8672C188.781 93.8672 188.102 94.0312 187.523 94.3594C186.945 94.6719 186.461 95.1094 186.07 95.6719C185.68 96.2188 185.391 96.8672 185.203 97.6172C185.016 98.3672 184.922 99.1797 184.922 100.055ZM204.164 101.578V101.086C204.164 99.2266 204.43 97.5156 204.961 95.9531C205.492 94.375 206.273 93.0078 207.305 91.8516C208.336 90.6953 209.602 89.7969 211.102 89.1562C212.602 88.5 214.32 88.1719 216.258 88.1719C218.227 88.1719 219.961 88.5 221.461 89.1562C222.977 89.7969 224.25 90.6953 225.281 91.8516C226.312 93.0078 227.094 94.375 227.625 95.9531C228.156 97.5156 228.422 99.2266 228.422 101.086V101.578C228.422 103.422 228.156 105.133 227.625 106.711C227.094 108.273 226.312 109.641 225.281 110.812C224.25 111.969 222.984 112.867 221.484 113.508C219.984 114.148 218.258 114.469 216.305 114.469C214.367 114.469 212.641 114.148 211.125 113.508C209.609 112.867 208.336 111.969 207.305 110.812C206.273 109.641 205.492 108.273 204.961 106.711C204.43 105.133 204.164 103.422 204.164 101.578ZM211.5 101.086V101.578C211.5 102.578 211.578 103.516 211.734 104.391C211.906 105.266 212.18 106.031 212.555 106.688C212.93 107.344 213.422 107.859 214.031 108.234C214.656 108.594 215.414 108.773 216.305 108.773C217.195 108.773 217.945 108.594 218.555 108.234C219.164 107.859 219.656 107.344 220.031 106.688C220.406 106.031 220.672 105.266 220.828 104.391C221 103.516 221.086 102.578 221.086 101.578V101.086C221.086 100.102 221 99.1797 220.828 98.3203C220.672 97.4453 220.406 96.6719 220.031 96C219.656 95.3281 219.156 94.8047 218.531 94.4297C217.922 94.0547 217.164 93.8672 216.258 93.8672C215.383 93.8672 214.641 94.0547 214.031 94.4297C213.422 94.8047 212.93 95.3281 212.555 96C212.18 96.6719 211.906 97.4453 211.734 98.3203C211.578 99.1797 211.5 100.102 211.5 101.086ZM252.727 79.875V114H245.109V79.875H252.727ZM265.688 94.0547V114H258.352V88.6406H265.242L265.688 94.0547ZM264.727 100.43L262.898 100.477C262.898 98.5703 263.133 96.8594 263.602 95.3438C264.07 93.8281 264.734 92.5391 265.594 91.4766C266.469 90.3984 267.508 89.5781 268.711 89.0156C269.93 88.4531 271.273 88.1719 272.742 88.1719C273.93 88.1719 275.016 88.3438 276 88.6875C276.984 89.0312 277.828 89.5859 278.531 90.3516C279.25 91.1016 279.797 92.1016 280.172 93.3516C280.547 94.5859 280.734 96.1094 280.734 97.9219V114H273.375V97.8984C273.375 96.8359 273.227 96.0156 272.93 95.4375C272.633 94.8594 272.195 94.4531 271.617 94.2188C271.055 93.9844 270.367 93.8672 269.555 93.8672C268.695 93.8672 267.961 94.0391 267.352 94.3828C266.742 94.7109 266.242 95.1719 265.852 95.7656C265.461 96.3594 265.172 97.0547 264.984 97.8516C264.812 98.6484 264.727 99.5078 264.727 100.43ZM292.688 94.0547V114H285.352V88.6406H292.242L292.688 94.0547ZM291.727 100.43L289.898 100.477C289.898 98.5703 290.133 96.8594 290.602 95.3438C291.07 93.8281 291.734 92.5391 292.594 91.4766C293.469 90.3984 294.508 89.5781 295.711 89.0156C296.93 88.4531 298.273 88.1719 299.742 88.1719C300.93 88.1719 302.016 88.3438 303 88.6875C303.984 89.0312 304.828 89.5859 305.531 90.3516C306.25 91.1016 306.797 92.1016 307.172 93.3516C307.547 94.5859 307.734 96.1094 307.734 97.9219V114H300.375V97.8984C300.375 96.8359 300.227 96.0156 299.93 95.4375C299.633 94.8594 299.195 94.4531 298.617 94.2188C298.055 93.9844 297.367 93.8672 296.555 93.8672C295.695 93.8672 294.961 94.0391 294.352 94.3828C293.742 94.7109 293.242 95.1719 292.852 95.7656C292.461 96.3594 292.172 97.0547 291.984 97.8516C291.812 98.6484 291.727 99.5078 291.727 100.43ZM311.461 101.578V101.086C311.461 99.2266 311.727 97.5156 312.258 95.9531C312.789 94.375 313.57 93.0078 314.602 91.8516C315.633 90.6953 316.898 89.7969 318.398 89.1562C319.898 88.5 321.617 88.1719 323.555 88.1719C325.523 88.1719 327.258 88.5 328.758 89.1562C330.273 89.7969 331.547 90.6953 332.578 91.8516C333.609 93.0078 334.391 94.375 334.922 95.9531C335.453 97.5156 335.719 99.2266 335.719 101.086V101.578C335.719 103.422 335.453 105.133 334.922 106.711C334.391 108.273 333.609 109.641 332.578 110.812C331.547 111.969 330.281 112.867 328.781 113.508C327.281 114.148 325.555 114.469 323.602 114.469C321.664 114.469 319.938 114.148 318.422 113.508C316.906 112.867 315.633 111.969 314.602 110.812C313.57 109.641 312.789 108.273 312.258 106.711C311.727 105.133 311.461 103.422 311.461 101.578ZM318.797 101.086V101.578C318.797 102.578 318.875 103.516 319.031 104.391C319.203 105.266 319.477 106.031 319.852 106.688C320.227 107.344 320.719 107.859 321.328 108.234C321.953 108.594 322.711 108.773 323.602 108.773C324.492 108.773 325.242 108.594 325.852 108.234C326.461 107.859 326.953 107.344 327.328 106.688C327.703 106.031 327.969 105.266 328.125 104.391C328.297 103.516 328.383 102.578 328.383 101.578V101.086C328.383 100.102 328.297 99.1797 328.125 98.3203C327.969 97.4453 327.703 96.6719 327.328 96C326.953 95.3281 326.453 94.8047 325.828 94.4297C325.219 94.0547 324.461 93.8672 323.555 93.8672C322.68 93.8672 321.938 94.0547 321.328 94.4297C320.719 94.8047 320.227 95.3281 319.852 96C319.477 96.6719 319.203 97.4453 319.031 98.3203C318.875 99.1797 318.797 100.102 318.797 101.086ZM348.07 108.82L353.367 88.6406H361.055L352.641 114H348.023L348.07 108.82ZM344.648 88.6406L349.922 108.844L349.969 114H345.352L336.938 88.6406H344.648ZM376.805 107.953V97.0781C376.805 96.3125 376.688 95.6562 376.453 95.1094C376.219 94.5625 375.852 94.1328 375.352 93.8203C374.852 93.5078 374.203 93.3516 373.406 93.3516C372.734 93.3516 372.148 93.4688 371.648 93.7031C371.164 93.9375 370.789 94.2734 370.523 94.7109C370.273 95.1484 370.148 95.6875 370.148 96.3281H362.836C362.836 95.1875 363.094 94.125 363.609 93.1406C364.125 92.1562 364.859 91.2891 365.812 90.5391C366.781 89.7891 367.938 89.2109 369.281 88.8047C370.625 88.3828 372.133 88.1719 373.805 88.1719C375.789 88.1719 377.555 88.5078 379.102 89.1797C380.664 89.8359 381.898 90.8281 382.805 92.1562C383.711 93.4688 384.164 95.125 384.164 97.125V107.742C384.164 109.273 384.25 110.477 384.422 111.352C384.609 112.211 384.875 112.961 385.219 113.602V114H377.836C377.492 113.266 377.234 112.359 377.062 111.281C376.891 110.188 376.805 109.078 376.805 107.953ZM377.719 98.5312L377.766 102.562H374.133C373.32 102.562 372.617 102.664 372.023 102.867C371.445 103.07 370.977 103.352 370.617 103.711C370.258 104.055 369.992 104.461 369.82 104.93C369.664 105.383 369.586 105.883 369.586 106.43C369.586 106.945 369.711 107.414 369.961 107.836C370.211 108.242 370.555 108.562 370.992 108.797C371.43 109.031 371.938 109.148 372.516 109.148C373.469 109.148 374.281 108.961 374.953 108.586C375.641 108.211 376.172 107.758 376.547 107.227C376.922 106.68 377.109 106.172 377.109 105.703L378.867 108.75C378.586 109.375 378.242 110.023 377.836 110.695C377.43 111.352 376.914 111.969 376.289 112.547C375.664 113.109 374.906 113.57 374.016 113.93C373.141 114.289 372.086 114.469 370.852 114.469C369.258 114.469 367.812 114.148 366.516 113.508C365.219 112.852 364.18 111.953 363.398 110.812C362.633 109.672 362.25 108.359 362.25 106.875C362.25 105.547 362.492 104.367 362.977 103.336C363.461 102.305 364.188 101.43 365.156 100.711C366.141 99.9922 367.375 99.4531 368.859 99.0938C370.344 98.7188 372.078 98.5312 374.062 98.5312H377.719ZM401.859 88.6406V93.7734H386.812V88.6406H401.859ZM390.258 82.3594H397.594V106.055C397.594 106.758 397.68 107.297 397.852 107.672C398.023 108.047 398.305 108.312 398.695 108.469C399.086 108.609 399.586 108.68 400.195 108.68C400.633 108.68 401.008 108.664 401.32 108.633C401.633 108.602 401.922 108.562 402.188 108.516V113.812C401.562 114.016 400.898 114.172 400.195 114.281C399.492 114.406 398.727 114.469 397.898 114.469C396.32 114.469 394.953 114.211 393.797 113.695C392.656 113.18 391.781 112.367 391.172 111.258C390.562 110.133 390.258 108.672 390.258 106.875V82.3594ZM417.328 114.469C415.312 114.469 413.508 114.148 411.914 113.508C410.32 112.867 408.969 111.984 407.859 110.859C406.766 109.719 405.93 108.406 405.352 106.922C404.773 105.438 404.484 103.852 404.484 102.164V101.273C404.484 99.3828 404.75 97.6406 405.281 96.0469C405.812 94.4531 406.586 93.0703 407.602 91.8984C408.633 90.7109 409.898 89.7969 411.398 89.1562C412.898 88.5 414.609 88.1719 416.531 88.1719C418.328 88.1719 419.93 88.4688 421.336 89.0625C422.742 89.6406 423.93 90.4766 424.898 91.5703C425.867 92.6484 426.602 93.9531 427.102 95.4844C427.617 97 427.875 98.7031 427.875 100.594V103.594H407.438V98.8828H420.703V98.3203C420.703 97.4297 420.539 96.6484 420.211 95.9766C419.898 95.3047 419.43 94.7891 418.805 94.4297C418.195 94.0547 417.422 93.8672 416.484 93.8672C415.594 93.8672 414.852 94.0547 414.258 94.4297C413.664 94.8047 413.188 95.3359 412.828 96.0234C412.484 96.6953 412.234 97.4844 412.078 98.3906C411.922 99.2812 411.844 100.242 411.844 101.273V102.164C411.844 103.148 411.977 104.047 412.242 104.859C412.508 105.672 412.898 106.367 413.414 106.945C413.93 107.523 414.555 107.977 415.289 108.305C416.023 108.633 416.859 108.797 417.797 108.797C418.953 108.797 420.055 108.578 421.102 108.141C422.148 107.688 423.055 106.984 423.82 106.031L427.242 109.945C426.727 110.695 426 111.422 425.062 112.125C424.141 112.812 423.031 113.375 421.734 113.812C420.438 114.25 418.969 114.469 417.328 114.469Z" fill="#EB455F"/>
</svg>
